<?xml version="1.0" encoding="UTF-8" standalone="no"?>
<!-- Created with Inkscape (http://www.inkscape.org/) -->

<svg
   width="44.631042mm"
   height="30.834957mm"
   viewBox="0 0 44.631042 30.834957"
   version="1.1"
   id="svg1"
   xml:space="preserve"
   inkscape:version="1.4 (e7c3feb1, 2024-10-09)"
   sodipodi:docname="davids demoner logo.svg.2025_03_10_16_01_31.0.svg"
   xmlns:inkscape="http://www.inkscape.org/namespaces/inkscape"
   xmlns:sodipodi="http://sodipodi.sourceforge.net/DTD/sodipodi-0.dtd"
   xmlns="http://www.w3.org/2000/svg"
   xmlns:svg="http://www.w3.org/2000/svg"><path
     id="path2"
     style="display:inline;fill:#000000;stroke-width:0.372077"
     d="M 30.70424,0.97573281 C 30.61154,1.0805428 30.5218,1.1899628 30.43479,1.3027328 c -0.15021,0.1947 -0.37448,0.5247 -0.50714,0.73185 -0.13262,0.2071 -0.34482,0.54479 -0.48322,0.74814 -0.13832,0.20323 -0.37304,0.52557 -0.51592,0.72581 -0.14227,0.19938 -0.3673,0.52766 -0.50227,0.73331 -0.34088,0.5194 -0.66435,1.05091 -0.98225,1.58584 -0.12565,0.21143 -0.32746,0.55539 -0.45273,0.76709 -0.12518,0.21155 -0.33648,0.54984 -0.48063,0.74912 -0.14363,0.19855 -0.39185,0.50995 -0.53931,0.70683 -0.14556,0.19436 -0.36931,0.52161 -0.49902,0.7306 -0.31966,0.51505 -0.60011,1.05177 -0.87338,1.5966502 -0.11016,0.21965 -0.28631,0.57724 -0.39671,0.79707 -0.1099,0.21886 -0.29883,0.56952 -0.43479,0.77444 -0.13549,0.2042 -0.38534,0.51466 -0.54648,0.70051 -0.15948,0.18392 -0.42545,0.4784 -0.59433,0.65726 -0.97987,1.03786 -2.08079,1.98389 -3.32682,2.63258 -0.21814,0.11356 -0.58198,0.27753 -0.81094,0.3674 l -0.41784,0.15418 c -0.66998,0.14885 -1.06576,0.0775 -1.28067,-0.0403 -0.19667,-0.10784 -0.51616,-0.31652 -0.72953,-0.43891 -0.14796,-0.0849 -0.27517,-0.15762 -0.38308,-0.22276 -0.20941,-0.12639 -0.49944,-0.40576 -0.60797,-0.62549 -0.10295,-0.20841 -0.18335,-0.59162 -0.20382,-0.83662 -0.006,-0.0724 -0.0206,-0.33026 -0.0361,-0.57577 -0.0155,-0.24528 -0.0611,-0.64166 -0.10891,-0.88292 -0.0476,-0.24012 -0.16346,-0.62259 -0.27551,-0.8413 -0.11073,-0.21615 -0.35692,-0.53152 -0.54351,-0.69131 -0.53629,-0.45925 -1.2702,-0.70569 -1.98641,-0.66889 -0.24542,0.0126 -0.63596,0.10801 -0.86042,0.20788 -0.22336,0.0994 -0.55472,0.32168 -0.75095,0.46998 -0.19564,0.14785 -0.5169804,0.38306 -0.7204604,0.52128 -0.20276,0.13773 -0.53731,0.35374 -0.74863,0.47963 -0.26104,0.1555 -0.52727,0.30067 -0.79892,0.42881 -0.22237,0.1049 -0.59431,0.25027 -0.83002,0.32044 -0.23535,0.0701 -0.62906,0.13973 -0.87478,0.14517 -0.24388,0.005 -0.64015,-0.0291 -0.88539,-0.0483 -0.24144,-0.0189 -0.63709,-0.0363 -0.88297,-0.0302 -0.59395,0.0147 -1.16526,0.10914 -1.69014,0.34765 -0.22373,0.10167 -0.55939,0.32069 -0.74499,0.48186 -0.18493,0.16059 -0.44426,0.46369 -0.59347,0.65923 -0.14855,0.19467 -0.41148,0.49361 -0.58927993,0.66353 -0.17531,0.16754 -0.46894,0.43396 -0.63537,0.61502 -0.0186,0.0202 -0.0367,0.0404 -0.0543,0.0605 -0.16135,0.18418 -0.32077,0.57376 -0.22799,0.79371 0.083,0.19679 0.40589,0.41072 0.6248,0.52278 0.21637,0.11076 0.57421993,0.28282 0.80583993,0.36538 0.22813,0.0813 0.61622,0.16595 0.86096,0.18947 2.52042,0.0142 1.27634,0.0962 0.98198,1.54539 -0.003,0.0374 -0.003,0.27519 0.0943,0.49903 0.0623,0.14251 0.14783,0.27382 0.23908,0.3513 0.18307,0.15546 0.53827,0.3348 0.7658,0.42823 0.22392,0.0919 0.61512,0.17241 0.86062,0.16679 0.75221,-0.0172 1.56825,-0.35783 2.37847,-0.54619 0.23886,-0.0555 0.63423,-0.10778 0.8799,-0.11887 0.16074,-0.007 0.32171,-0.0121 0.44423,-0.0205 0.24014,-0.0163 0.62629,-0.10151 0.86714,-0.15151 0.7902304,-0.16408 1.5842804,-0.25264 2.3409304,0.0141 0.2313,0.0815 0.5825,0.27894 0.76191,0.44649 0.17581,0.1642 0.379,0.5165 0.41095,0.75913 0.0565,0.42938 -0.1176,0.85749 -0.36954,1.27435 -0.1272,0.21048 -0.3566,0.53714 -0.50155,0.73589 -3e-5,5e-5 -7e-5,10e-5 -1.1e-4,1.5e-4 -0.14485,0.19862 -0.40117,0.50714 -0.59265,0.66105 -0.18139,0.14586 -0.98356,-0.33096 -1.40942,-0.12802 -0.9291104,0.44277 -1.2461904,1.59437 -1.7198404,2.56433 -0.10605,0.22177 -0.27615,0.58265 -0.40415,0.7926 -0.12616,0.20692 -0.31847,0.5553 -0.38756,0.79097 -0.0728,0.2482 -0.11357,0.52066 -0.12467,0.79794 -0.01,0.24564 0.0166,0.64441 0.0398,0.88934 10e-6,10e-6 10e-6,3e-5 10e-6,5e-5 0.0231,0.2439 0.12684,0.64063 0.2887,0.82335 0.40738,0.45984 1.19196,0.53831 1.70975,0.28983 0.2197704,-0.10547 0.4589404,-0.43715 0.5980404,-0.64005 0.12619,-0.18407 0.42485,-0.42438 0.62085,-0.57302 0.68147,-0.51681 1.33507,-1.01578 2.10459,-1.37373 0.22282,-0.10364 0.59741,-0.24164 0.82248,-0.34086 0.14577,-0.0643 0.28925,-0.13307 0.3951,-0.19452 1.06215,-0.61667 1.9493,-1.12311 3.04601,-1.47446 0.23411,-0.075 0.62709,-0.11652 0.86868,-0.0712 0.78885,0.14789 1.76552,0.56146 2.57084,0.98861 0.21726,0.11523 0.58911,0.20259 0.835,0.2072 1.17705,0.0221 2.35201,0.35739 3.50538,0.24772 0.24466,-0.0233 0.46975,-0.27325 0.38955,-0.50307 -0.24619,-0.70549 -1.16049,-1.4594 -1.01859,-2.17023 0.0476,-0.23829 0.28336,-0.57942 0.45157,-0.75796 0.64368,-0.68317 1.31014,0.44671 2.10137,1.01527 0.19899,0.14299 0.53148,0.3579 0.73905,0.48924 0.61069,0.38642 1.39044,0.52986 2.1401,0.65863 0.24233,0.0416 0.63595,0.11044 0.88161,0.1201 1.20803,0.0475 2.29775,-0.48954 3.39405,-0.99552 0.22284,-0.10285 0.57552,-0.2868 0.77936,-0.42446 0.43806,-0.29582 0.80728,-0.5985 1.22575,-0.94995 0.18804,-0.15792 0.48968,-0.42277 0.62495,-0.6277 0.56708,-0.85911 -0.0993,-1.51298 -0.86735,-0.80032 -0.1801,0.16711 -0.46634,0.43301 -0.68949,0.53641 -1.28751,0.59657 -2.79756,0.79106 -4.15302,0.39847 -0.2362,-0.0684 -0.62376,-0.16073 -0.85387,-0.24598 -0.92118,-0.34125 -1.40562,-1.36712 -1.94791,-2.11386 -0.14432,-0.19874 -0.31802,-0.54627 -0.43337,-0.76267 -0.46596,-0.87419 -1.64024,-1.2999 -1.9812,-2.14885 -0.0911,-0.22677 -0.16049,-0.63141 -0.12957,-0.87411 0.0829,-0.65043 0.89548,-0.62784 1.43015,-0.85487 0.22328,-0.0948 0.39985,-0.45529 0.49956,-0.67972 0.36769,-0.82763 1.30019,-2.03287 2.22536,-1.66226 0.22712,0.091 0.57431,0.26824 0.79516,0.37455 1.20704,0.58103 1.84614,2.60825 3.25963,1.9999 0.22515,-0.0969 0.47924,-0.39631 0.61157,-0.60361 0.55874,-0.87524 1.36904,-1.70183 2.10244,-2.48121 0.1684,-0.17895 0.43373,-0.47756 0.56534,-0.68506 0.40141,-0.63291 0.84387,-1.5859 1.60941,-1.77308 0.23724,-0.058 0.63924,0.007 0.88228,0.0446 1.08271,0.16894 2.32299,0.40845 3.50609,0.47566 0.24342,0.0138 0.62976,-0.0538 0.83873,-0.18314 1.29198,-0.79947 -0.7857,-1.6364702 -1.67309,-2.4778802 -0.17771,-0.16849 -0.39843,-0.50396 -0.54464,-0.70178 -0.71353,-0.96538 -1.50251,-1.88058 -2.35228,-2.6986 -0.17719,-0.17057 -0.45897,-0.45222 -0.62372,-0.63489 -1.00792,-1.11764 -2.00443,-2.22733 -3.50019,-2.21156 -0.24569,0.003 -0.64781,0.0143 -0.86699,-0.0951 -0.99966,-0.49895 -1.05013,-2.08766999 -2.07457,-2.43344999 -0.23196,-0.0783 -0.63152,-0.0108 -0.84965,0.1022 0,0 -8e-5,4e-5 -2.3e-4,1.2e-4 -0.10977,0.0553 -0.24492,0.1433 -0.37505,0.23855 -0.19822,0.14509 -0.34445,0.2813 -0.34441,0.28122 z"
     inkscape:export-filename="smalldragon.svg"
     inkscape:export-xdpi="96"
     inkscape:export-ydpi="96"
     sodipodi:nodetypes="csssssssssssssscscsccssscssssccssssssssscssssssssssscscssssscscsasssscssssssssssssssssssssssssssssssscscsssccssccccssccssccscc" /><sodipodi:namedview
     id="namedview1"
     pagecolor="#ffffff"
     bordercolor="#000000"
     borderopacity="0.25"
     inkscape:showpageshadow="2"
     inkscape:pageopacity="0.0"
     inkscape:pagecheckerboard="0"
     inkscape:deskcolor="#d1d1d1"
     inkscape:document-units="mm"
     inkscape:zoom="0.6356671"
     inkscape:cx="350.02598"
     inkscape:cy="874.67166"
     inkscape:window-width="1680"
     inkscape:window-height="997"
     inkscape:window-x="0"
     inkscape:window-y="473"
     inkscape:window-maximized="1"
     inkscape:current-layer="svg1"><inkscape:page
       x="0"
       y="0"
       width="44.631042"
       height="30.834957"
       id="page2"
       margin="0"
       bleed="0" /></sodipodi:namedview><defs
     id="defs1" /></svg>
